# Blender v2.82 (sub 7) OBJ File: ''
# www.blender.org
mtllib ending.mtl
o Cube
v -0.382683 0.000000 -0.923880
v -0.195090 0.000000 -0.980785
v -0.555570 0.000000 -0.831470
v 0.000000 0.000000 -1.000000
v -0.707107 0.000000 -0.707107
v -0.831470 0.000000 -0.555570
v -0.923880 0.000000 -0.382683
v -0.980785 0.000000 -0.195090
v -1.000000 0.000000 -0.000000
v -0.980785 0.000000 0.195090
v -0.923880 0.000000 0.382683
v -0.831470 0.000000 0.555570
v -0.707107 0.000000 0.707107
v -0.555570 0.000000 0.831470
v -0.382683 0.000000 0.923880
v -0.195090 0.000000 0.980785
v 0.000000 0.000000 1.000000
v 0.195091 0.000000 0.980785
v 0.382684 0.000000 0.923879
v 0.555571 0.000000 0.831469
v 0.707107 0.000000 0.707106
v 0.831470 0.000000 0.555570
v 0.923880 0.000000 0.382683
v 0.980785 0.000000 0.195089
v 1.000000 0.000000 -0.000001
v 0.980785 0.000000 -0.195091
v 0.923879 0.000000 -0.382684
v 0.831469 0.000000 -0.555571
v 0.707106 0.000000 -0.707108
v 0.555569 0.000000 -0.831470
v 0.382682 0.000000 -0.923880
v 0.195089 0.000000 -0.980786
vt 0.019311 0.354184
vt 0.056993 0.263209
vt 0.111702 0.181332
vt 0.263207 0.056995
vt 0.450762 0.000100
vt 0.181331 0.111703
vt 0.000100 0.450763
vt 0.549235 0.000100
vt 0.645814 0.019311
vt 0.019311 0.645815
vt 0.000100 0.549235
vt 0.736791 0.056995
vt 0.056994 0.736791
vt 0.818668 0.111703
vt 0.888298 0.181333
vt 0.980689 0.354185
vt 0.999900 0.450764
vt 0.999900 0.549236
vt 0.181332 0.888297
vt 0.111702 0.818667
vt 0.980689 0.645815
vt 0.888297 0.818668
vt 0.645815 0.980689
vt 0.943006 0.263209
vt 0.263208 0.943005
vt 0.549235 0.999900
vt 0.354184 0.980689
vt 0.450763 0.999900
vt 0.736791 0.943006
vt 0.943006 0.736791
vt 0.354182 0.019311
vt 0.818667 0.888298
vn 0.0000 1.0000 0.0000
usemtl Material
s off
f 30/1/1 31/2/1 32/3/1
f 30/1/1 2/4/1 3/5/1
f 32/3/1 4/6/1 2/4/1
f 2/4/1 30/1/1 32/3/1
f 29/7/1 30/1/1 3/5/1
f 29/7/1 3/5/1 5/8/1
f 5/8/1 6/9/1 29/7/1
f 29/7/1 6/9/1 27/10/1
f 28/11/1 29/7/1 27/10/1
f 27/10/1 6/9/1 7/12/1
f 26/13/1 27/10/1 7/12/1
f 26/13/1 7/12/1 8/14/1
f 8/14/1 9/15/1 26/13/1
f 11/16/1 12/17/1 13/18/1
f 24/19/1 25/20/1 9/15/1
f 14/21/1 16/22/1 19/23/1
f 9/15/1 10/24/1 11/16/1
f 23/25/1 9/15/1 11/16/1
f 11/16/1 20/26/1 23/25/1
f 23/25/1 24/19/1 9/15/1
f 20/26/1 22/27/1 23/25/1
f 20/26/1 11/16/1 13/18/1
f 20/26/1 21/28/1 22/27/1
f 20/26/1 13/18/1 14/21/1
f 19/23/1 20/26/1 14/21/1
f 16/22/1 18/29/1 19/23/1
f 14/21/1 15/30/1 16/22/1
f 2/4/1 1/31/1 3/5/1
f 17/32/1 18/29/1 16/22/1
f 9/15/1 25/20/1 26/13/1
