# Blender v2.82 (sub 7) OBJ File: 'Tabuleiro.blend'
# www.blender.org
mtllib pilar.mtl
o Cube.002_Cube.014
v 3.000000 0.000000 2.000000
v 3.000000 0.100000 2.000000
v -4.077038 0.000000 2.000000
v -4.077038 0.100000 2.000000
v 3.000000 0.000000 1.800000
v 3.000000 0.100000 1.800000
v -4.077038 0.000000 1.800000
v -4.077038 0.100000 1.800000
vn 0.5773 -0.5773 0.5773
vn 0.5773 0.5773 0.5773
vn -0.5773 0.5773 0.5773
vn -0.5773 -0.5773 0.5773
vn -0.5773 0.5773 -0.5773
vn -0.5773 -0.5773 -0.5773
vn 0.5773 0.5773 -0.5773
vn 0.5773 -0.5773 -0.5773
usemtl MatMad.011
s 1
f 1//1 2//2 4//3 3//4
f 3//4 4//3 8//5 7//6
f 7//6 8//5 6//7 5//8
f 5//8 6//7 2//2 1//1
f 3//4 7//6 5//8 1//1
f 8//5 4//3 2//2 6//7
